<?xml version="1.0" encoding="utf-8" standalone="no"?>
<!DOCTYPE svg PUBLIC "-//W3C//DTD SVG 1.1//EN"
  "http://www.w3.org/Graphics/SVG/1.1/DTD/svg11.dtd">
<svg xmlns:xlink="http://www.w3.org/1999/xlink" width="460.8pt" height="237.758437pt" viewBox="0 0 460.8 237.758437" xmlns="http://www.w3.org/2000/svg" version="1.1">
 <metadata>
  <rdf:RDF xmlns:dc="http://purl.org/dc/elements/1.1/" xmlns:cc="http://creativecommons.org/ns#" xmlns:rdf="http://www.w3.org/1999/02/22-rdf-syntax-ns#">
   <cc:Work>
    <dc:type rdf:resource="http://purl.org/dc/dcmitype/StillImage"/>
    <dc:date>2026-02-06T12:32:52.253338</dc:date>
    <dc:format>image/svg+xml</dc:format>
    <dc:creator>
     <cc:Agent>
      <dc:title>Matplotlib v3.10.7, https://matplotlib.org/</dc:title>
     </cc:Agent>
    </dc:creator>
   </cc:Work>
  </rdf:RDF>
 </metadata>
 <defs>
  <style type="text/css">*{stroke-linejoin: round; stroke-linecap: butt}</style>
 </defs>
 <g id="figure_1">
  <g id="patch_1">
   <path d="M 0 237.758437 
L 460.8 237.758437 
L 460.8 0 
L 0 0 
z
" style="fill: #ffffff"/>
  </g>
  <g id="axes_1">
   <g id="line2d_1">
    <path d="M 63 63.158437 
L 118.8 63.158437 
" clip-path="url(#pf093f2b6a1)" style="fill: none; stroke: #000000; stroke-linecap: square"/>
   </g>
   <g id="line2d_2">
    <path d="M 63 63.158437 
L 44.4 118.958437 
" clip-path="url(#pf093f2b6a1)" style="fill: none; stroke: #000000; stroke-linecap: square"/>
   </g>
   <g id="line2d_3">
    <path d="M 63 63.158437 
L 100.2 118.958437 
" clip-path="url(#pf093f2b6a1)" style="fill: none; stroke: #000000; stroke-linecap: square"/>
   </g>
   <g id="line2d_4">
    <path d="M 118.8 63.158437 
L 100.2 118.958437 
" clip-path="url(#pf093f2b6a1)" style="fill: none; stroke: #000000; stroke-linecap: square"/>
   </g>
   <g id="line2d_5">
    <path d="M 118.8 63.158437 
L 156 118.958437 
" clip-path="url(#pf093f2b6a1)" style="fill: none; stroke: #000000; stroke-linecap: square"/>
   </g>
   <g id="line2d_6">
    <path d="M 44.4 118.958437 
L 100.2 118.958437 
" clip-path="url(#pf093f2b6a1)" style="fill: none; stroke: #000000; stroke-linecap: square"/>
   </g>
   <g id="line2d_7">
    <path d="M 44.4 118.958437 
L 63 174.758437 
" clip-path="url(#pf093f2b6a1)" style="fill: none; stroke: #000000; stroke-linecap: square"/>
   </g>
   <g id="line2d_8">
    <path d="M 100.2 118.958437 
L 156 118.958437 
" clip-path="url(#pf093f2b6a1)" style="fill: none; stroke: #000000; stroke-linecap: square"/>
   </g>
   <g id="line2d_9">
    <path d="M 100.2 118.958437 
L 63 174.758437 
" clip-path="url(#pf093f2b6a1)" style="fill: none; stroke: #000000; stroke-linecap: square"/>
   </g>
   <g id="line2d_10">
    <path d="M 100.2 118.958437 
L 118.8 174.758437 
" clip-path="url(#pf093f2b6a1)" style="fill: none; stroke: #000000; stroke-linecap: square"/>
   </g>
   <g id="line2d_11">
    <path d="M 156 118.958437 
L 118.8 174.758437 
" clip-path="url(#pf093f2b6a1)" style="fill: none; stroke: #000000; stroke-linecap: square"/>
   </g>
   <g id="line2d_12">
    <path d="M 63 174.758437 
L 118.8 174.758437 
" clip-path="url(#pf093f2b6a1)" style="fill: none; stroke: #000000; stroke-linecap: square"/>
   </g>
   <g id="line2d_13">
    <path d="M 323.4 81.758437 
L 379.2 44.558437 
" clip-path="url(#pf093f2b6a1)" style="fill: none; stroke: #000000; stroke-linecap: square"/>
   </g>
   <g id="line2d_14">
    <path d="M 323.4 81.758437 
L 379.2 100.358437 
" clip-path="url(#pf093f2b6a1)" style="fill: none; stroke: #000000; stroke-linecap: square"/>
   </g>
   <g id="line2d_15">
    <path d="M 323.4 81.758437 
L 379.2 156.158437 
" clip-path="url(#pf093f2b6a1)" style="fill: none; stroke: #000000; stroke-linecap: square"/>
   </g>
   <g id="line2d_16">
    <path d="M 379.2 44.558437 
L 435 44.558437 
" clip-path="url(#pf093f2b6a1)" style="fill: none; stroke: #000000; stroke-linecap: square"/>
   </g>
   <g id="line2d_17">
    <path d="M 379.2 100.358437 
L 435 100.358437 
" clip-path="url(#pf093f2b6a1)" style="fill: none; stroke: #000000; stroke-linecap: square"/>
   </g>
   <g id="line2d_18">
    <path d="M 379.2 156.158437 
L 435 156.158437 
" clip-path="url(#pf093f2b6a1)" style="fill: none; stroke: #000000; stroke-linecap: square"/>
   </g>
   <g id="line2d_19">
    <path d="M 156 118.958437 
L 323.4 81.758437 
" clip-path="url(#pf093f2b6a1)" style="fill: none; stroke-dasharray: 7.4,3.2; stroke-dashoffset: 0; stroke: #b2182b; stroke-width: 2"/>
   </g>
   <g id="patch_2">
    <path d="M 33.24 221.258437 
C 34.719833 221.258437 36.139256 220.670493 37.185656 219.624093 
C 38.232056 218.577693 38.82 217.158271 38.82 215.678437 
C 38.82 214.198604 38.232056 212.779182 37.185656 211.732782 
C 36.139256 210.686382 34.719833 210.098437 33.24 210.098437 
C 31.760167 210.098437 30.340744 210.686382 29.294344 211.732782 
C 28.247944 212.779182 27.66 214.198604 27.66 215.678437 
C 27.66 217.158271 28.247944 218.577693 29.294344 219.624093 
C 30.340744 220.670493 31.760167 221.258437 33.24 221.258437 
z
" clip-path="url(#pf093f2b6a1)" style="fill: #ffffff; stroke: #000000; stroke-linejoin: miter"/>
   </g>
   <g id="patch_3">
    <path d="M 107.64 221.258437 
C 109.119833 221.258437 110.539256 220.670493 111.585656 219.624093 
C 112.632056 218.577693 113.22 217.158271 113.22 215.678437 
C 113.22 214.198604 112.632056 212.779182 111.585656 211.732782 
C 110.539256 210.686382 109.119833 210.098437 107.64 210.098437 
C 106.160167 210.098437 104.740744 210.686382 103.694344 211.732782 
C 102.647944 212.779182 102.06 214.198604 102.06 215.678437 
C 102.06 217.158271 102.647944 218.577693 103.694344 219.624093 
C 104.740744 220.670493 106.160167 221.258437 107.64 221.258437 
z
" clip-path="url(#pf093f2b6a1)" style="fill: #d9d9d9; stroke: #000000; stroke-linejoin: miter"/>
   </g>
   <g id="patch_4">
    <path d="M 63 71.342437 
C 65.170422 71.342437 67.252242 70.48012 68.786962 68.945399 
C 70.321682 67.410679 71.184 65.32886 71.184 63.158437 
C 71.184 60.988015 70.321682 58.906196 68.786962 57.371476 
C 67.252242 55.836755 65.170422 54.974437 63 54.974437 
C 60.829578 54.974437 58.747758 55.836755 57.213038 57.371476 
C 55.678318 58.906196 54.816 60.988015 54.816 63.158437 
C 54.816 65.32886 55.678318 67.410679 57.213038 68.945399 
C 58.747758 70.48012 60.829578 71.342437 63 71.342437 
z
" clip-path="url(#pf093f2b6a1)" style="fill: #ffffff; stroke: #000000; stroke-width: 1.2; stroke-linejoin: miter"/>
   </g>
   <g id="patch_5">
    <path d="M 118.8 71.342437 
C 120.970422 71.342437 123.052242 70.48012 124.586962 68.945399 
C 126.121682 67.410679 126.984 65.32886 126.984 63.158437 
C 126.984 60.988015 126.121682 58.906196 124.586962 57.371476 
C 123.052242 55.836755 120.970422 54.974437 118.8 54.974437 
C 116.629578 54.974437 114.547758 55.836755 113.013038 57.371476 
C 111.478318 58.906196 110.616 60.988015 110.616 63.158437 
C 110.616 65.32886 111.478318 67.410679 113.013038 68.945399 
C 114.547758 70.48012 116.629578 71.342437 118.8 71.342437 
z
" clip-path="url(#pf093f2b6a1)" style="fill: #ffffff; stroke: #000000; stroke-width: 1.2; stroke-linejoin: miter"/>
   </g>
   <g id="patch_6">
    <path d="M 44.4 127.142437 
C 46.570422 127.142437 48.652242 126.28012 50.186962 124.745399 
C 51.721682 123.210679 52.584 121.12886 52.584 118.958437 
C 52.584 116.788015 51.721682 114.706196 50.186962 113.171476 
C 48.652242 111.636755 46.570422 110.774437 44.4 110.774437 
C 42.229578 110.774437 40.147758 111.636755 38.613038 113.171476 
C 37.078318 114.706196 36.216 116.788015 36.216 118.958437 
C 36.216 121.12886 37.078318 123.210679 38.613038 124.745399 
C 40.147758 126.28012 42.229578 127.142437 44.4 127.142437 
z
" clip-path="url(#pf093f2b6a1)" style="fill: #ffffff; stroke: #000000; stroke-width: 1.2; stroke-linejoin: miter"/>
   </g>
   <g id="patch_7">
    <path d="M 100.2 127.142437 
C 102.370422 127.142437 104.452242 126.28012 105.986962 124.745399 
C 107.521682 123.210679 108.384 121.12886 108.384 118.958437 
C 108.384 116.788015 107.521682 114.706196 105.986962 113.171476 
C 104.452242 111.636755 102.370422 110.774437 100.2 110.774437 
C 98.029578 110.774437 95.947758 111.636755 94.413038 113.171476 
C 92.878318 114.706196 92.016 116.788015 92.016 118.958437 
C 92.016 121.12886 92.878318 123.210679 94.413038 124.745399 
C 95.947758 126.28012 98.029578 127.142437 100.2 127.142437 
z
" clip-path="url(#pf093f2b6a1)" style="fill: #ffffff; stroke: #000000; stroke-width: 1.2; stroke-linejoin: miter"/>
   </g>
   <g id="patch_8">
    <path d="M 156 127.142437 
C 158.170422 127.142437 160.252242 126.28012 161.786962 124.745399 
C 163.321682 123.210679 164.184 121.12886 164.184 118.958437 
C 164.184 116.788015 163.321682 114.706196 161.786962 113.171476 
C 160.252242 111.636755 158.170422 110.774437 156 110.774437 
C 153.829578 110.774437 151.747758 111.636755 150.213038 113.171476 
C 148.678318 114.706196 147.816 116.788015 147.816 118.958437 
C 147.816 121.12886 148.678318 123.210679 150.213038 124.745399 
C 151.747758 126.28012 153.829578 127.142437 156 127.142437 
z
" clip-path="url(#pf093f2b6a1)" style="fill: #ffffff; stroke: #000000; stroke-width: 1.2; stroke-linejoin: miter"/>
   </g>
   <g id="patch_9">
    <path d="M 63 182.942437 
C 65.170422 182.942437 67.252242 182.08012 68.786962 180.545399 
C 70.321682 179.010679 71.184 176.92886 71.184 174.758437 
C 71.184 172.588015 70.321682 170.506196 68.786962 168.971476 
C 67.252242 167.436755 65.170422 166.574437 63 166.574437 
C 60.829578 166.574437 58.747758 167.436755 57.213038 168.971476 
C 55.678318 170.506196 54.816 172.588015 54.816 174.758437 
C 54.816 176.92886 55.678318 179.010679 57.213038 180.545399 
C 58.747758 182.08012 60.829578 182.942437 63 182.942437 
z
" clip-path="url(#pf093f2b6a1)" style="fill: #ffffff; stroke: #000000; stroke-width: 1.2; stroke-linejoin: miter"/>
   </g>
   <g id="patch_10">
    <path d="M 118.8 182.942437 
C 120.970422 182.942437 123.052242 182.08012 124.586962 180.545399 
C 126.121682 179.010679 126.984 176.92886 126.984 174.758437 
C 126.984 172.588015 126.121682 170.506196 124.586962 168.971476 
C 123.052242 167.436755 120.970422 166.574437 118.8 166.574437 
C 116.629578 166.574437 114.547758 167.436755 113.013038 168.971476 
C 111.478318 170.506196 110.616 172.588015 110.616 174.758437 
C 110.616 176.92886 111.478318 179.010679 113.013038 180.545399 
C 114.547758 182.08012 116.629578 182.942437 118.8 182.942437 
z
" clip-path="url(#pf093f2b6a1)" style="fill: #ffffff; stroke: #000000; stroke-width: 1.2; stroke-linejoin: miter"/>
   </g>
   <g id="patch_11">
    <path d="M 323.4 89.942437 
C 325.570422 89.942437 327.652242 89.08012 329.186962 87.545399 
C 330.721682 86.010679 331.584 83.92886 331.584 81.758437 
C 331.584 79.588015 330.721682 77.506196 329.186962 75.971476 
C 327.652242 74.436755 325.570422 73.574437 323.4 73.574437 
C 321.229578 73.574437 319.147758 74.436755 317.613038 75.971476 
C 316.078318 77.506196 315.216 79.588015 315.216 81.758437 
C 315.216 83.92886 316.078318 86.010679 317.613038 87.545399 
C 319.147758 89.08012 321.229578 89.942437 323.4 89.942437 
z
" clip-path="url(#pf093f2b6a1)" style="fill: #d9d9d9; stroke: #000000; stroke-width: 1.2; stroke-linejoin: miter"/>
   </g>
   <g id="patch_12">
    <path d="M 379.2 52.742437 
C 381.370422 52.742437 383.452242 51.88012 384.986962 50.345399 
C 386.521682 48.810679 387.384 46.72886 387.384 44.558437 
C 387.384 42.388015 386.521682 40.306196 384.986962 38.771476 
C 383.452242 37.236755 381.370422 36.374437 379.2 36.374437 
C 377.029578 36.374437 374.947758 37.236755 373.413038 38.771476 
C 371.878318 40.306196 371.016 42.388015 371.016 44.558437 
C 371.016 46.72886 371.878318 48.810679 373.413038 50.345399 
C 374.947758 51.88012 377.029578 52.742437 379.2 52.742437 
z
" clip-path="url(#pf093f2b6a1)" style="fill: #d9d9d9; stroke: #000000; stroke-width: 1.2; stroke-linejoin: miter"/>
   </g>
   <g id="patch_13">
    <path d="M 379.2 108.542437 
C 381.370422 108.542437 383.452242 107.68012 384.986962 106.145399 
C 386.521682 104.610679 387.384 102.52886 387.384 100.358437 
C 387.384 98.188015 386.521682 96.106196 384.986962 94.571476 
C 383.452242 93.036755 381.370422 92.174437 379.2 92.174437 
C 377.029578 92.174437 374.947758 93.036755 373.413038 94.571476 
C 371.878318 96.106196 371.016 98.188015 371.016 100.358437 
C 371.016 102.52886 371.878318 104.610679 373.413038 106.145399 
C 374.947758 107.68012 377.029578 108.542437 379.2 108.542437 
z
" clip-path="url(#pf093f2b6a1)" style="fill: #d9d9d9; stroke: #000000; stroke-width: 1.2; stroke-linejoin: miter"/>
   </g>
   <g id="patch_14">
    <path d="M 379.2 164.342437 
C 381.370422 164.342437 383.452242 163.48012 384.986962 161.945399 
C 386.521682 160.410679 387.384 158.32886 387.384 156.158437 
C 387.384 153.988015 386.521682 151.906196 384.986962 150.371476 
C 383.452242 148.836755 381.370422 147.974437 379.2 147.974437 
C 377.029578 147.974437 374.947758 148.836755 373.413038 150.371476 
C 371.878318 151.906196 371.016 153.988015 371.016 156.158437 
C 371.016 158.32886 371.878318 160.410679 373.413038 161.945399 
C 374.947758 163.48012 377.029578 164.342437 379.2 164.342437 
z
" clip-path="url(#pf093f2b6a1)" style="fill: #d9d9d9; stroke: #000000; stroke-width: 1.2; stroke-linejoin: miter"/>
   </g>
   <g id="patch_15">
    <path d="M 435 52.742437 
C 437.170422 52.742437 439.252242 51.88012 440.786962 50.345399 
C 442.321682 48.810679 443.184 46.72886 443.184 44.558437 
C 443.184 42.388015 442.321682 40.306196 440.786962 38.771476 
C 439.252242 37.236755 437.170422 36.374437 435 36.374437 
C 432.829578 36.374437 430.747758 37.236755 429.213038 38.771476 
C 427.678318 40.306196 426.816 42.388015 426.816 44.558437 
C 426.816 46.72886 427.678318 48.810679 429.213038 50.345399 
C 430.747758 51.88012 432.829578 52.742437 435 52.742437 
z
" clip-path="url(#pf093f2b6a1)" style="fill: #d9d9d9; stroke: #000000; stroke-width: 1.2; stroke-linejoin: miter"/>
   </g>
   <g id="patch_16">
    <path d="M 435 108.542437 
C 437.170422 108.542437 439.252242 107.68012 440.786962 106.145399 
C 442.321682 104.610679 443.184 102.52886 443.184 100.358437 
C 443.184 98.188015 442.321682 96.106196 440.786962 94.571476 
C 439.252242 93.036755 437.170422 92.174437 435 92.174437 
C 432.829578 92.174437 430.747758 93.036755 429.213038 94.571476 
C 427.678318 96.106196 426.816 98.188015 426.816 100.358437 
C 426.816 102.52886 427.678318 104.610679 429.213038 106.145399 
C 430.747758 107.68012 432.829578 108.542437 435 108.542437 
z
" clip-path="url(#pf093f2b6a1)" style="fill: #d9d9d9; stroke: #000000; stroke-width: 1.2; stroke-linejoin: miter"/>
   </g>
   <g id="patch_17">
    <path d="M 435 164.342437 
C 437.170422 164.342437 439.252242 163.48012 440.786962 161.945399 
C 442.321682 160.410679 443.184 158.32886 443.184 156.158437 
C 443.184 153.988015 442.321682 151.906196 440.786962 150.371476 
C 439.252242 148.836755 437.170422 147.974437 435 147.974437 
C 432.829578 147.974437 430.747758 148.836755 429.213038 150.371476 
C 427.678318 151.906196 426.816 153.988015 426.816 156.158437 
C 426.816 158.32886 427.678318 160.410679 429.213038 161.945399 
C 430.747758 163.48012 432.829578 164.342437 435 164.342437 
z
" clip-path="url(#pf093f2b6a1)" style="fill: #d9d9d9; stroke: #000000; stroke-width: 1.2; stroke-linejoin: miter"/>
   </g>
   <g id="line2d_20">
    <path d="M 174.6 215.678437 
L 200.64 215.678437 
" clip-path="url(#pf093f2b6a1)" style="fill: none; stroke-dasharray: 7.4,3.2; stroke-dashoffset: 0; stroke: #b2182b; stroke-width: 2"/>
   </g>
   <g id="text_1">
    <!-- $\kappa$=+0.6 -->
    <g style="fill: #2166ac" transform="translate(64.405 113.378437) scale(0.07 -0.07)">
     <defs>
      <path id="Cmmi10-2219" d="M 341 109 
Q 341 147 347 166 
L 959 2625 
Q 984 2716 1059 2772 
Q 1134 2828 1228 2828 
Q 1309 2828 1365 2779 
Q 1422 2731 1422 2650 
Q 1422 2631 1420 2620 
Q 1419 2609 1416 2597 
L 1184 1672 
Q 1441 1756 1866 2111 
Q 2291 2466 2508 2612 
Q 2725 2759 3041 2759 
Q 3144 2759 3214 2695 
Q 3284 2631 3284 2522 
Q 3284 2372 3176 2267 
Q 3069 2163 2919 2163 
Q 2816 2163 2745 2230 
Q 2675 2297 2675 2400 
Q 2675 2472 2700 2522 
Q 2547 2459 2386 2346 
Q 2225 2234 2094 2120 
Q 1963 2006 1778 1853 
Q 1594 1700 1447 1619 
Q 1709 1619 1984 1562 
Q 2259 1506 2461 1356 
Q 2663 1206 2663 947 
Q 2663 844 2638 769 
Q 2578 513 2578 384 
Q 2578 97 2778 97 
Q 3006 97 3128 350 
Q 3250 603 3328 941 
Q 3341 978 3378 978 
L 3456 978 
Q 3481 978 3497 961 
Q 3513 944 3513 922 
Q 3513 916 3506 903 
Q 3272 -72 2766 -72 
Q 2584 -72 2445 12 
Q 2306 97 2231 242 
Q 2156 388 2156 569 
Q 2156 684 2181 781 
Q 2203 869 2203 928 
Q 2203 1134 2020 1253 
Q 1838 1372 1589 1415 
Q 1341 1459 1125 1459 
L 800 141 
Q 778 53 701 -9 
Q 625 -72 531 -72 
Q 453 -72 397 -22 
Q 341 28 341 109 
z
" transform="scale(0.015625)"/>
      <path id="DejaVuSerif-3d" d="M 678 2894 
L 4684 2894 
L 4684 2394 
L 678 2394 
L 678 2894 
z
M 678 1619 
L 4684 1619 
L 4684 1119 
L 678 1119 
L 678 1619 
z
" transform="scale(0.015625)"/>
      <path id="DejaVuSerif-2b" d="M 2931 4013 
L 2931 2259 
L 4684 2259 
L 4684 1753 
L 2931 1753 
L 2931 0 
L 2431 0 
L 2431 1753 
L 678 1753 
L 678 2259 
L 2431 2259 
L 2431 4013 
L 2931 4013 
z
" transform="scale(0.015625)"/>
      <path id="DejaVuSerif-30" d="M 2034 219 
Q 2513 219 2750 744 
Q 2988 1269 2988 2328 
Q 2988 3391 2750 3916 
Q 2513 4441 2034 4441 
Q 1556 4441 1318 3916 
Q 1081 3391 1081 2328 
Q 1081 1269 1318 744 
Q 1556 219 2034 219 
z
M 2034 -91 
Q 1275 -91 848 546 
Q 422 1184 422 2328 
Q 422 3475 848 4112 
Q 1275 4750 2034 4750 
Q 2797 4750 3222 4112 
Q 3647 3475 3647 2328 
Q 3647 1184 3222 546 
Q 2797 -91 2034 -91 
z
" transform="scale(0.015625)"/>
      <path id="DejaVuSerif-2e" d="M 603 325 
Q 603 500 722 622 
Q 841 744 1019 744 
Q 1191 744 1312 622 
Q 1434 500 1434 325 
Q 1434 153 1312 31 
Q 1191 -91 1019 -91 
Q 841 -91 722 29 
Q 603 150 603 325 
z
" transform="scale(0.015625)"/>
      <path id="DejaVuSerif-36" d="M 2094 219 
Q 2534 219 2771 542 
Q 3009 866 3009 1472 
Q 3009 2078 2771 2401 
Q 2534 2725 2094 2725 
Q 1647 2725 1412 2412 
Q 1178 2100 1178 1509 
Q 1178 888 1415 553 
Q 1653 219 2094 219 
z
M 1075 2569 
Q 1288 2803 1556 2918 
Q 1825 3034 2163 3034 
Q 2859 3034 3264 2615 
Q 3669 2197 3669 1472 
Q 3669 763 3233 336 
Q 2797 -91 2069 -91 
Q 1278 -91 853 498 
Q 428 1088 428 2181 
Q 428 3406 931 4078 
Q 1434 4750 2350 4750 
Q 2597 4750 2869 4703 
Q 3141 4656 3425 4563 
L 3425 3794 
L 3072 3794 
Q 3034 4109 2831 4275 
Q 2628 4441 2284 4441 
Q 1678 4441 1381 3981 
Q 1084 3522 1075 2569 
z
" transform="scale(0.015625)"/>
     </defs>
     <use xlink:href="#Cmmi10-2219" transform="translate(0 0.78125)"/>
     <use xlink:href="#DejaVuSerif-3d" transform="translate(57.617188 0.78125)"/>
     <use xlink:href="#DejaVuSerif-2b" transform="translate(141.40625 0.78125)"/>
     <use xlink:href="#DejaVuSerif-30" transform="translate(225.195312 0.78125)"/>
     <use xlink:href="#DejaVuSerif-2e" transform="translate(288.818359 0.78125)"/>
     <use xlink:href="#DejaVuSerif-36" transform="translate(320.605469 0.78125)"/>
    </g>
   </g>
   <g id="text_2">
    <!-- $\kappa$=+0.6 -->
    <g style="fill: #2166ac" transform="translate(120.205 113.378437) scale(0.07 -0.07)">
     <use xlink:href="#Cmmi10-2219" transform="translate(0 0.78125)"/>
     <use xlink:href="#DejaVuSerif-3d" transform="translate(57.617188 0.78125)"/>
     <use xlink:href="#DejaVuSerif-2b" transform="translate(141.40625 0.78125)"/>
     <use xlink:href="#DejaVuSerif-30" transform="translate(225.195312 0.78125)"/>
     <use xlink:href="#DejaVuSerif-2e" transform="translate(288.818359 0.78125)"/>
     <use xlink:href="#DejaVuSerif-36" transform="translate(320.605469 0.78125)"/>
    </g>
   </g>
   <g id="text_3">
    <!-- $\kappa$=+0.3 -->
    <g style="fill: #2166ac" transform="translate(83.005 169.178437) scale(0.07 -0.07)">
     <defs>
      <path id="DejaVuSerif-33" d="M 622 4469 
Q 988 4606 1323 4678 
Q 1659 4750 1953 4750 
Q 2638 4750 3022 4454 
Q 3406 4159 3406 3634 
Q 3406 3213 3140 2930 
Q 2875 2647 2388 2547 
Q 2963 2466 3280 2130 
Q 3597 1794 3597 1259 
Q 3597 606 3158 257 
Q 2719 -91 1894 -91 
Q 1528 -91 1179 -12 
Q 831 66 488 225 
L 488 1131 
L 838 1131 
Q 869 681 1141 450 
Q 1413 219 1906 219 
Q 2384 219 2661 495 
Q 2938 772 2938 1253 
Q 2938 1803 2653 2086 
Q 2369 2369 1819 2369 
L 1522 2369 
L 1522 2688 
L 1678 2688 
Q 2225 2688 2498 2914 
Q 2772 3141 2772 3597 
Q 2772 4006 2547 4223 
Q 2322 4441 1900 4441 
Q 1478 4441 1245 4241 
Q 1013 4041 972 3647 
L 622 3647 
L 622 4469 
z
" transform="scale(0.015625)"/>
     </defs>
     <use xlink:href="#Cmmi10-2219" transform="translate(0 0.78125)"/>
     <use xlink:href="#DejaVuSerif-3d" transform="translate(57.617188 0.78125)"/>
     <use xlink:href="#DejaVuSerif-2b" transform="translate(141.40625 0.78125)"/>
     <use xlink:href="#DejaVuSerif-30" transform="translate(225.195312 0.78125)"/>
     <use xlink:href="#DejaVuSerif-2e" transform="translate(288.818359 0.78125)"/>
     <use xlink:href="#DejaVuSerif-33" transform="translate(320.605469 0.78125)"/>
    </g>
   </g>
   <g id="text_4">
    <!-- Honest Community -->
    <g transform="translate(38.738906 33.398437) scale(0.1 -0.1)">
     <defs>
      <path id="DejaVuSerif-Bold-48" d="M 300 0 
L 300 378 
L 897 378 
L 897 4288 
L 300 4288 
L 300 4666 
L 2700 4666 
L 2700 4288 
L 2100 4288 
L 2100 2719 
L 3956 2719 
L 3956 4288 
L 3359 4288 
L 3359 4666 
L 5759 4666 
L 5759 4288 
L 5159 4288 
L 5159 378 
L 5759 378 
L 5759 0 
L 3359 0 
L 3359 378 
L 3956 378 
L 3956 2291 
L 2100 2291 
L 2100 378 
L 2700 378 
L 2700 0 
L 300 0 
z
" transform="scale(0.015625)"/>
      <path id="DejaVuSerif-Bold-6f" d="M 2138 263 
Q 2488 263 2630 563 
Q 2772 863 2772 1663 
Q 2772 2463 2631 2761 
Q 2491 3059 2138 3059 
Q 1784 3059 1640 2757 
Q 1497 2456 1497 1663 
Q 1497 869 1640 566 
Q 1784 263 2138 263 
z
M 2138 -91 
Q 1259 -91 761 376 
Q 263 844 263 1663 
Q 263 2484 761 2948 
Q 1259 3413 2138 3413 
Q 3019 3413 3516 2948 
Q 4013 2484 4013 1663 
Q 4013 844 3514 376 
Q 3016 -91 2138 -91 
z
" transform="scale(0.015625)"/>
      <path id="DejaVuSerif-Bold-6e" d="M 219 0 
L 219 378 
L 691 378 
L 691 2944 
L 219 2944 
L 219 3322 
L 1797 3322 
L 1797 2853 
Q 1997 3150 2253 3281 
Q 2509 3413 2900 3413 
Q 3459 3413 3745 3083 
Q 4031 2753 4031 2113 
L 4031 378 
L 4506 378 
L 4506 0 
L 2522 0 
L 2522 378 
L 2925 378 
L 2925 2144 
Q 2925 2566 2817 2730 
Q 2709 2894 2444 2894 
Q 2109 2894 1953 2648 
Q 1797 2403 1797 1869 
L 1797 378 
L 2203 378 
L 2203 0 
L 219 0 
z
" transform="scale(0.015625)"/>
      <path id="DejaVuSerif-Bold-65" d="M 2566 1875 
Q 2566 2531 2444 2795 
Q 2322 3059 2028 3059 
Q 1744 3059 1620 2800 
Q 1497 2541 1497 1931 
L 1497 1875 
L 2566 1875 
z
M 3781 1503 
L 1497 1503 
L 1497 1478 
Q 1497 834 1690 548 
Q 1884 263 2316 263 
Q 2675 263 2897 453 
Q 3119 644 3181 1006 
L 3700 1006 
Q 3566 441 3166 175 
Q 2766 -91 2047 -91 
Q 1184 -91 723 364 
Q 263 819 263 1663 
Q 263 2488 734 2950 
Q 1206 3413 2047 3413 
Q 2872 3413 3312 2927 
Q 3753 2441 3781 1503 
z
" transform="scale(0.015625)"/>
      <path id="DejaVuSerif-Bold-73" d="M 300 97 
L 300 1025 
L 653 1025 
Q 697 653 931 458 
Q 1166 263 1569 263 
Q 1906 263 2086 380 
Q 2266 497 2266 716 
Q 2266 916 2152 1025 
Q 2038 1134 1709 1216 
L 1253 1331 
Q 738 1459 506 1698 
Q 275 1938 275 2344 
Q 275 2884 650 3148 
Q 1025 3413 1806 3413 
Q 2100 3413 2433 3364 
Q 2766 3316 3169 3213 
L 3169 2375 
L 2816 2375 
Q 2788 2716 2573 2887 
Q 2359 3059 1959 3059 
Q 1622 3059 1448 2951 
Q 1275 2844 1275 2638 
Q 1275 2469 1375 2372 
Q 1475 2275 1734 2209 
L 2188 2094 
Q 2841 1928 3091 1684 
Q 3341 1441 3341 1006 
Q 3341 444 2939 176 
Q 2538 -91 1691 -91 
Q 1381 -91 1034 -44 
Q 688 3 300 97 
z
" transform="scale(0.015625)"/>
      <path id="DejaVuSerif-Bold-74" d="M 634 2944 
L 153 2944 
L 153 3322 
L 634 3322 
L 634 4353 
L 1741 4353 
L 1741 3322 
L 2663 3322 
L 2663 2944 
L 1741 2944 
L 1741 909 
Q 1741 475 1809 369 
Q 1878 263 2059 263 
Q 2259 263 2356 397 
Q 2453 531 2459 813 
L 2925 813 
Q 2897 313 2651 111 
Q 2406 -91 1806 -91 
Q 1122 -91 878 123 
Q 634 338 634 909 
L 634 2944 
z
" transform="scale(0.015625)"/>
      <path id="DejaVuSerif-Bold-20" transform="scale(0.015625)"/>
      <path id="DejaVuSerif-Bold-43" d="M 4769 1331 
Q 4584 609 4106 259 
Q 3628 -91 2822 -91 
Q 1641 -91 955 561 
Q 269 1213 269 2328 
Q 269 3447 955 4098 
Q 1641 4750 2822 4750 
Q 3238 4750 3688 4650 
Q 4138 4550 4641 4347 
L 4641 3200 
L 4244 3200 
Q 4122 3788 3800 4080 
Q 3478 4372 2950 4372 
Q 2269 4372 1937 3870 
Q 1606 3369 1606 2328 
Q 1606 1288 1937 788 
Q 2269 288 2956 288 
Q 3422 288 3717 547 
Q 4013 806 4147 1331 
L 4769 1331 
z
" transform="scale(0.015625)"/>
      <path id="DejaVuSerif-Bold-6d" d="M 3884 2778 
Q 4116 3109 4384 3261 
Q 4653 3413 5013 3413 
Q 5584 3413 5867 3089 
Q 6150 2766 6150 2113 
L 6150 378 
L 6625 378 
L 6625 0 
L 4647 0 
L 4647 378 
L 5044 378 
L 5044 1947 
Q 5044 2569 4948 2731 
Q 4853 2894 4594 2894 
Q 4300 2894 4137 2667 
Q 3975 2441 3975 2022 
L 3975 378 
L 4372 378 
L 4372 0 
L 2472 0 
L 2472 378 
L 2869 378 
L 2869 1947 
Q 2869 2569 2772 2731 
Q 2675 2894 2419 2894 
Q 2122 2894 1959 2667 
Q 1797 2441 1797 2022 
L 1797 378 
L 2194 378 
L 2194 0 
L 219 0 
L 219 378 
L 691 378 
L 691 2944 
L 219 2944 
L 219 3322 
L 1797 3322 
L 1797 2853 
Q 1991 3144 2241 3278 
Q 2491 3413 2834 3413 
Q 3241 3413 3494 3258 
Q 3747 3103 3884 2778 
z
" transform="scale(0.015625)"/>
      <path id="DejaVuSerif-Bold-75" d="M 3963 3322 
L 3963 378 
L 4434 378 
L 4434 0 
L 2853 0 
L 2853 469 
Q 2656 172 2400 40 
Q 2144 -91 1753 -91 
Q 1194 -91 908 239 
Q 622 569 622 1209 
L 622 2944 
L 147 2944 
L 147 3322 
L 1728 3322 
L 1728 1381 
Q 1728 763 1831 595 
Q 1934 428 2209 428 
Q 2544 428 2698 675 
Q 2853 922 2853 1459 
L 2853 2944 
L 2450 2944 
L 2450 3322 
L 3963 3322 
z
" transform="scale(0.015625)"/>
      <path id="DejaVuSerif-Bold-69" d="M 588 4263 
Q 588 4516 763 4689 
Q 938 4863 1191 4863 
Q 1438 4863 1611 4689 
Q 1784 4516 1784 4263 
Q 1784 4016 1611 3842 
Q 1438 3669 1191 3669 
Q 938 3669 763 3841 
Q 588 4013 588 4263 
z
M 1797 378 
L 2272 378 
L 2272 0 
L 219 0 
L 219 378 
L 691 378 
L 691 2944 
L 219 2944 
L 219 3322 
L 1797 3322 
L 1797 378 
z
" transform="scale(0.015625)"/>
      <path id="DejaVuSerif-Bold-79" d="M 1997 -750 
Q 1847 -1116 1634 -1269 
Q 1422 -1422 1063 -1422 
Q 909 -1422 721 -1387 
Q 534 -1353 313 -1288 
L 313 -594 
L 666 -597 
Q 675 -838 779 -953 
Q 884 -1069 1094 -1069 
Q 1297 -1069 1422 -958 
Q 1547 -847 1672 -538 
L 1722 -422 
L 275 2944 
L -84 2944 
L -84 3322 
L 1831 3322 
L 1831 2944 
L 1434 2944 
L 2278 978 
L 3066 2944 
L 2625 2944 
L 2625 3322 
L 3872 3322 
L 3872 2944 
L 3469 2944 
L 1997 -750 
z
" transform="scale(0.015625)"/>
     </defs>
     <use xlink:href="#DejaVuSerif-Bold-48"/>
     <use xlink:href="#DejaVuSerif-Bold-6f" transform="translate(94.482422 0)"/>
     <use xlink:href="#DejaVuSerif-Bold-6e" transform="translate(161.181641 0)"/>
     <use xlink:href="#DejaVuSerif-Bold-65" transform="translate(233.886719 0)"/>
     <use xlink:href="#DejaVuSerif-Bold-73" transform="translate(297.509766 0)"/>
     <use xlink:href="#DejaVuSerif-Bold-74" transform="translate(353.808594 0)"/>
     <use xlink:href="#DejaVuSerif-Bold-20" transform="translate(400 0)"/>
     <use xlink:href="#DejaVuSerif-Bold-43" transform="translate(434.814453 0)"/>
     <use xlink:href="#DejaVuSerif-Bold-6f" transform="translate(514.404297 0)"/>
     <use xlink:href="#DejaVuSerif-Bold-6d" transform="translate(581.103516 0)"/>
     <use xlink:href="#DejaVuSerif-Bold-6d" transform="translate(686.914062 0)"/>
     <use xlink:href="#DejaVuSerif-Bold-75" transform="translate(792.724609 0)"/>
     <use xlink:href="#DejaVuSerif-Bold-6e" transform="translate(865.429688 0)"/>
     <use xlink:href="#DejaVuSerif-Bold-69" transform="translate(938.134766 0)"/>
     <use xlink:href="#DejaVuSerif-Bold-74" transform="translate(976.123047 0)"/>
     <use xlink:href="#DejaVuSerif-Bold-79" transform="translate(1022.314453 0)"/>
    </g>
   </g>
   <g id="text_5">
    <!-- $\kappa$=$-1.0$ -->
    <g style="fill: #b2182b" transform="translate(326.135 63.158437) scale(0.07 -0.07)">
     <defs>
      <path id="Cmsy10-a1" d="M 653 1472 
Q 600 1472 565 1512 
Q 531 1553 531 1600 
Q 531 1647 565 1687 
Q 600 1728 653 1728 
L 4325 1728 
Q 4375 1728 4408 1687 
Q 4441 1647 4441 1600 
Q 4441 1553 4408 1512 
Q 4375 1472 4325 1472 
L 653 1472 
z
" transform="scale(0.015625)"/>
      <path id="Cmr10-31" d="M 594 0 
L 594 225 
Q 1394 225 1394 428 
L 1394 3788 
Q 1063 3628 556 3628 
L 556 3853 
Q 1341 3853 1741 4263 
L 1831 4263 
Q 1853 4263 1873 4245 
Q 1894 4228 1894 4206 
L 1894 428 
Q 1894 225 2694 225 
L 2694 0 
L 594 0 
z
" transform="scale(0.015625)"/>
      <path id="Cmmi10-3a" d="M 538 353 
Q 538 497 644 600 
Q 750 703 891 703 
Q 978 703 1062 656 
Q 1147 609 1194 525 
Q 1241 441 1241 353 
Q 1241 213 1137 106 
Q 1034 0 891 0 
Q 750 0 644 106 
Q 538 213 538 353 
z
" transform="scale(0.015625)"/>
      <path id="Cmr10-30" d="M 1600 -141 
Q 816 -141 533 504 
Q 250 1150 250 2041 
Q 250 2597 351 3087 
Q 453 3578 754 3920 
Q 1056 4263 1600 4263 
Q 2022 4263 2290 4056 
Q 2559 3850 2700 3523 
Q 2841 3197 2892 2823 
Q 2944 2450 2944 2041 
Q 2944 1491 2842 1011 
Q 2741 531 2444 195 
Q 2147 -141 1600 -141 
z
M 1600 25 
Q 1956 25 2131 390 
Q 2306 756 2347 1200 
Q 2388 1644 2388 2144 
Q 2388 2625 2347 3031 
Q 2306 3438 2132 3767 
Q 1959 4097 1600 4097 
Q 1238 4097 1063 3765 
Q 888 3434 847 3029 
Q 806 2625 806 2144 
Q 806 1788 823 1472 
Q 841 1156 916 820 
Q 991 484 1158 254 
Q 1325 25 1600 25 
z
" transform="scale(0.015625)"/>
     </defs>
     <use xlink:href="#Cmmi10-2219" transform="translate(0 0.390625)"/>
     <use xlink:href="#DejaVuSerif-3d" transform="translate(57.617188 0.390625)"/>
     <use xlink:href="#Cmsy10-a1" transform="translate(141.40625 0.390625)"/>
     <use xlink:href="#Cmr10-31" transform="translate(219.091797 0.390625)"/>
     <use xlink:href="#Cmmi10-3a" transform="translate(269.091797 0.390625)"/>
     <use xlink:href="#Cmr10-30" transform="translate(296.777344 0.390625)"/>
    </g>
   </g>
   <g id="text_6">
    <!-- $\kappa$=$-1.0$ -->
    <g style="fill: #b2182b" transform="translate(326.135 118.958437) scale(0.07 -0.07)">
     <use xlink:href="#Cmmi10-2219" transform="translate(0 0.390625)"/>
     <use xlink:href="#DejaVuSerif-3d" transform="translate(57.617188 0.390625)"/>
     <use xlink:href="#Cmsy10-a1" transform="translate(141.40625 0.390625)"/>
     <use xlink:href="#Cmr10-31" transform="translate(219.091797 0.390625)"/>
     <use xlink:href="#Cmmi10-3a" transform="translate(269.091797 0.390625)"/>
     <use xlink:href="#Cmr10-30" transform="translate(296.777344 0.390625)"/>
    </g>
   </g>
   <g id="text_7">
    <!-- $\kappa$=$-1.0$ -->
    <g style="fill: #b2182b" transform="translate(407.975 44.558437) scale(0.07 -0.07)">
     <use xlink:href="#Cmmi10-2219" transform="translate(0 0.390625)"/>
     <use xlink:href="#DejaVuSerif-3d" transform="translate(57.617188 0.390625)"/>
     <use xlink:href="#Cmsy10-a1" transform="translate(141.40625 0.390625)"/>
     <use xlink:href="#Cmr10-31" transform="translate(219.091797 0.390625)"/>
     <use xlink:href="#Cmmi10-3a" transform="translate(269.091797 0.390625)"/>
     <use xlink:href="#Cmr10-30" transform="translate(296.777344 0.390625)"/>
    </g>
   </g>
   <g id="text_8">
    <!-- $\kappa$=$-1.0$ -->
    <g style="fill: #b2182b" transform="translate(407.975 100.358437) scale(0.07 -0.07)">
     <use xlink:href="#Cmmi10-2219" transform="translate(0 0.390625)"/>
     <use xlink:href="#DejaVuSerif-3d" transform="translate(57.617188 0.390625)"/>
     <use xlink:href="#Cmsy10-a1" transform="translate(141.40625 0.390625)"/>
     <use xlink:href="#Cmr10-31" transform="translate(219.091797 0.390625)"/>
     <use xlink:href="#Cmmi10-3a" transform="translate(269.091797 0.390625)"/>
     <use xlink:href="#Cmr10-30" transform="translate(296.777344 0.390625)"/>
    </g>
   </g>
   <g id="text_9">
    <!-- Sybil Cluster -->
    <g transform="translate(354.354531 14.798437) scale(0.1 -0.1)">
     <defs>
      <path id="DejaVuSerif-Bold-53" d="M 494 225 
L 494 1331 
L 891 1331 
Q 981 806 1318 547 
Q 1656 288 2253 288 
Q 2738 288 2991 472 
Q 3244 656 3244 1013 
Q 3244 1294 3072 1450 
Q 2900 1606 2363 1741 
L 1663 1913 
Q 978 2088 700 2398 
Q 422 2709 422 3284 
Q 422 3978 883 4364 
Q 1344 4750 2175 4750 
Q 2584 4750 3026 4681 
Q 3469 4613 3944 4475 
L 3944 3444 
L 3547 3444 
Q 3456 3925 3150 4148 
Q 2844 4372 2278 4372 
Q 1816 4372 1580 4211 
Q 1344 4050 1344 3731 
Q 1344 3441 1506 3289 
Q 1669 3138 2303 2975 
L 3003 2803 
Q 3653 2641 3945 2297 
Q 4238 1953 4238 1350 
Q 4238 644 3750 276 
Q 3263 -91 2316 -91 
Q 1859 -91 1409 -12 
Q 959 66 494 225 
z
" transform="scale(0.015625)"/>
      <path id="DejaVuSerif-Bold-62" d="M 622 378 
L 622 4488 
L 147 4488 
L 147 4863 
L 1728 4863 
L 1728 2900 
Q 1869 3159 2106 3286 
Q 2344 3413 2694 3413 
Q 3403 3413 3811 2945 
Q 4219 2478 4219 1663 
Q 4219 847 3811 378 
Q 3403 -91 2694 -91 
Q 2344 -91 2106 36 
Q 1869 163 1728 422 
L 1728 0 
L 147 0 
L 147 378 
L 622 378 
z
M 1728 1497 
Q 1728 916 1876 656 
Q 2025 397 2356 397 
Q 2697 397 2836 672 
Q 2975 947 2975 1663 
Q 2975 2378 2836 2651 
Q 2697 2925 2356 2925 
Q 2025 2925 1876 2665 
Q 1728 2406 1728 1825 
L 1728 1497 
z
" transform="scale(0.015625)"/>
      <path id="DejaVuSerif-Bold-6c" d="M 1797 378 
L 2272 378 
L 2272 0 
L 219 0 
L 219 378 
L 691 378 
L 691 4488 
L 219 4488 
L 219 4863 
L 1797 4863 
L 1797 378 
z
" transform="scale(0.015625)"/>
      <path id="DejaVuSerif-Bold-72" d="M 3438 3359 
L 3438 2369 
L 3084 2369 
Q 3066 2634 2941 2764 
Q 2816 2894 2578 2894 
Q 2216 2894 2006 2575 
Q 1797 2256 1797 1691 
L 1797 378 
L 2400 378 
L 2400 0 
L 219 0 
L 219 378 
L 691 378 
L 691 2944 
L 184 2944 
L 184 3322 
L 1797 3322 
L 1797 2731 
Q 1959 3078 2226 3245 
Q 2494 3413 2881 3413 
Q 2978 3413 3117 3398 
Q 3256 3384 3438 3359 
z
" transform="scale(0.015625)"/>
     </defs>
     <use xlink:href="#DejaVuSerif-Bold-53"/>
     <use xlink:href="#DejaVuSerif-Bold-79" transform="translate(72.216797 0)"/>
     <use xlink:href="#DejaVuSerif-Bold-62" transform="translate(130.322266 0)"/>
     <use xlink:href="#DejaVuSerif-Bold-69" transform="translate(200.244141 0)"/>
     <use xlink:href="#DejaVuSerif-Bold-6c" transform="translate(238.232422 0)"/>
     <use xlink:href="#DejaVuSerif-Bold-20" transform="translate(276.220703 0)"/>
     <use xlink:href="#DejaVuSerif-Bold-43" transform="translate(311.035156 0)"/>
     <use xlink:href="#DejaVuSerif-Bold-6c" transform="translate(390.625 0)"/>
     <use xlink:href="#DejaVuSerif-Bold-75" transform="translate(428.613281 0)"/>
     <use xlink:href="#DejaVuSerif-Bold-73" transform="translate(501.318359 0)"/>
     <use xlink:href="#DejaVuSerif-Bold-74" transform="translate(557.617188 0)"/>
     <use xlink:href="#DejaVuSerif-Bold-65" transform="translate(603.808594 0)"/>
     <use xlink:href="#DejaVuSerif-Bold-72" transform="translate(667.431641 0)"/>
    </g>
   </g>
   <g id="text_10">
    <!-- Bridge: $\kappa_J = -1.0$ -->
    <g style="fill: #b2182b" transform="translate(200.46 87.338437) scale(0.09 -0.09)">
     <defs>
      <path id="DejaVuSerif-Bold-42" d="M 300 0 
L 300 378 
L 897 378 
L 897 4288 
L 300 4288 
L 300 4666 
L 3066 4666 
Q 3919 4666 4347 4378 
Q 4775 4091 4775 3513 
Q 4775 3097 4479 2853 
Q 4184 2609 3603 2547 
Q 4306 2481 4681 2172 
Q 5056 1863 5056 1350 
Q 5056 656 4532 328 
Q 4009 0 2894 0 
L 300 0 
z
M 2100 2719 
L 2509 2719 
Q 3047 2719 3306 2914 
Q 3566 3109 3566 3513 
Q 3566 3919 3314 4103 
Q 3063 4288 2509 4288 
L 2100 4288 
L 2100 2719 
z
M 2100 378 
L 2547 378 
Q 3144 378 3431 615 
Q 3719 853 3719 1350 
Q 3719 1850 3428 2097 
Q 3138 2344 2547 2344 
L 2100 2344 
L 2100 378 
z
" transform="scale(0.015625)"/>
      <path id="DejaVuSerif-Bold-64" d="M 2747 1497 
L 2747 1825 
Q 2747 2406 2597 2665 
Q 2447 2925 2119 2925 
Q 1775 2925 1636 2651 
Q 1497 2378 1497 1663 
Q 1497 947 1637 672 
Q 1778 397 2119 397 
Q 2447 397 2597 656 
Q 2747 916 2747 1497 
z
M 3853 378 
L 4325 378 
L 4325 0 
L 2747 0 
L 2747 422 
Q 2606 163 2367 36 
Q 2128 -91 1778 -91 
Q 1072 -91 667 378 
Q 263 847 263 1663 
Q 263 2481 667 2947 
Q 1072 3413 1778 3413 
Q 2128 3413 2367 3286 
Q 2606 3159 2747 2900 
L 2747 4488 
L 2272 4488 
L 2272 4863 
L 3853 4863 
L 3853 378 
z
" transform="scale(0.015625)"/>
      <path id="DejaVuSerif-Bold-67" d="M 3853 2944 
L 3853 44 
Q 3853 -656 3354 -1039 
Q 2856 -1422 1947 -1422 
Q 1616 -1422 1275 -1370 
Q 934 -1319 575 -1216 
L 575 -422 
L 928 -422 
Q 975 -750 1192 -909 
Q 1409 -1069 1813 -1069 
Q 2325 -1069 2536 -823 
Q 2747 -578 2747 44 
L 2747 422 
Q 2606 163 2367 36 
Q 2128 -91 1778 -91 
Q 1072 -91 667 378 
Q 263 847 263 1663 
Q 263 2481 667 2947 
Q 1072 3413 1778 3413 
Q 2128 3413 2367 3286 
Q 2606 3159 2747 2900 
L 2747 3322 
L 4325 3322 
L 4325 2944 
L 3853 2944 
z
M 2747 1825 
Q 2747 2406 2597 2665 
Q 2447 2925 2119 2925 
Q 1775 2925 1636 2651 
Q 1497 2378 1497 1663 
Q 1497 947 1637 672 
Q 1778 397 2119 397 
Q 2447 397 2597 656 
Q 2747 916 2747 1497 
L 2747 1825 
z
" transform="scale(0.015625)"/>
      <path id="DejaVuSerif-Bold-3a" d="M 588 2541 
Q 588 2788 761 2963 
Q 934 3138 1178 3138 
Q 1422 3138 1597 2961 
Q 1772 2784 1772 2541 
Q 1772 2297 1598 2125 
Q 1425 1953 1178 1953 
Q 931 1953 759 2125 
Q 588 2297 588 2541 
z
M 588 506 
Q 588 750 761 925 
Q 934 1100 1178 1100 
Q 1422 1100 1597 925 
Q 1772 750 1772 506 
Q 1772 259 1597 84 
Q 1422 -91 1178 -91 
Q 934 -91 761 84 
Q 588 259 588 506 
z
" transform="scale(0.015625)"/>
      <path id="Cmmi10-4a" d="M 697 384 
Q 759 206 928 115 
Q 1097 25 1294 25 
Q 1494 25 1680 164 
Q 1866 303 1995 512 
Q 2125 722 2175 928 
L 2931 3956 
Q 2938 3981 2939 3993 
Q 2941 4006 2944 4019 
Q 2944 4088 2894 4103 
Q 2725 4147 2209 4147 
Q 2144 4147 2144 4231 
Q 2156 4281 2164 4309 
Q 2172 4338 2192 4355 
Q 2213 4372 2253 4372 
L 3988 4372 
Q 4050 4372 4050 4288 
Q 4025 4147 3969 4147 
Q 3744 4147 3628 4112 
Q 3513 4078 3469 3928 
L 2713 903 
Q 2641 606 2420 367 
Q 2200 128 1897 -6 
Q 1594 -141 1288 -141 
Q 950 -141 695 46 
Q 441 234 441 556 
Q 441 769 556 922 
Q 672 1075 884 1075 
Q 1006 1075 1089 1000 
Q 1172 925 1172 806 
Q 1172 634 1044 506 
Q 916 378 744 378 
Q 709 378 697 384 
z
" transform="scale(0.015625)"/>
      <path id="Cmr10-3d" d="M 481 850 
Q 428 850 393 890 
Q 359 931 359 978 
Q 359 1031 393 1068 
Q 428 1106 481 1106 
L 4500 1106 
Q 4547 1106 4581 1068 
Q 4616 1031 4616 978 
Q 4616 931 4581 890 
Q 4547 850 4500 850 
L 481 850 
z
M 481 2094 
Q 428 2094 393 2131 
Q 359 2169 359 2222 
Q 359 2269 393 2309 
Q 428 2350 481 2350 
L 4500 2350 
Q 4547 2350 4581 2309 
Q 4616 2269 4616 2222 
Q 4616 2169 4581 2131 
Q 4547 2094 4500 2094 
L 481 2094 
z
" transform="scale(0.015625)"/>
     </defs>
     <use xlink:href="#DejaVuSerif-Bold-42" transform="translate(0 0.015625)"/>
     <use xlink:href="#DejaVuSerif-Bold-72" transform="translate(84.521484 0.015625)"/>
     <use xlink:href="#DejaVuSerif-Bold-69" transform="translate(137.207031 0.015625)"/>
     <use xlink:href="#DejaVuSerif-Bold-64" transform="translate(175.195312 0.015625)"/>
     <use xlink:href="#DejaVuSerif-Bold-67" transform="translate(245.117188 0.015625)"/>
     <use xlink:href="#DejaVuSerif-Bold-65" transform="translate(315.039062 0.015625)"/>
     <use xlink:href="#DejaVuSerif-Bold-3a" transform="translate(378.662109 0.015625)"/>
     <use xlink:href="#DejaVuSerif-Bold-20" transform="translate(415.576172 0.015625)"/>
     <use xlink:href="#Cmmi10-2219" transform="translate(450.390625 0.015625)"/>
     <use xlink:href="#Cmmi10-4a" transform="translate(508.007812 -16.990625) scale(0.7)"/>
     <use xlink:href="#Cmr10-3d" transform="translate(570.737695 0.015625)"/>
     <use xlink:href="#Cmsy10-a1" transform="translate(665.981836 0.015625)"/>
     <use xlink:href="#Cmr10-31" transform="translate(743.667383 0.015625)"/>
     <use xlink:href="#Cmmi10-3a" transform="translate(793.667383 0.015625)"/>
     <use xlink:href="#Cmr10-30" transform="translate(821.35293 0.015625)"/>
    </g>
   </g>
   <g id="text_11">
    <!-- weight $= \varepsilon = 0.01$ -->
    <g style="fill: #b2182b" transform="translate(206.58 113.378437) scale(0.08 -0.08)">
     <defs>
      <path id="DejaVuSerif-Italic-77" d="M 3741 728 
Q 4156 1178 4250 1344 
Q 4594 1969 4931 2988 
L 4447 2984 
L 4513 3322 
L 5347 3322 
L 5281 2984 
L 5278 2984 
Q 4959 1825 4656 1266 
Q 4209 469 3719 0 
L 3241 0 
L 2900 2484 
L 1597 0 
L 1138 0 
L 734 2988 
L 359 2981 
L 425 3322 
L 1281 3322 
L 1631 728 
L 2991 3322 
L 3394 3322 
L 3741 728 
z
" transform="scale(0.015625)"/>
      <path id="DejaVuSerif-Italic-65" d="M 938 1275 
Q 925 1156 925 1050 
Q 925 756 1031 563 
Q 1216 219 1709 219 
Q 2072 219 2250 328 
Q 2569 525 2644 778 
L 3066 778 
Q 2941 381 2475 103 
Q 2150 -91 1506 -91 
Q 863 -91 516 388 
Q 272 722 272 1206 
Q 272 1419 319 1659 
Q 472 2450 1000 2931 
Q 1528 3413 2278 3413 
Q 3500 3413 3500 2547 
Q 3500 1913 2859 1603 
Q 2206 1288 938 1275 
z
M 2541 1975 
Q 2891 2181 2891 2569 
Q 2891 3103 2181 3103 
Q 1763 3103 1472 2784 
Q 1181 2466 1003 1606 
Q 2006 1653 2541 1975 
z
" transform="scale(0.015625)"/>
      <path id="DejaVuSerif-Italic-69" d="M 1009 4353 
Q 1038 4497 1163 4603 
Q 1288 4709 1434 4709 
Q 1578 4709 1663 4603 
Q 1728 4522 1728 4422 
Q 1728 4388 1719 4353 
Q 1691 4206 1567 4103 
Q 1444 4000 1297 4000 
Q 1150 4000 1066 4103 
Q 1003 4181 1003 4281 
Q 1003 4316 1009 4353 
z
M 963 331 
L 1506 331 
L 1444 0 
L 325 0 
L 903 2988 
L 353 2988 
L 419 3322 
L 1544 3322 
L 963 331 
z
" transform="scale(0.015625)"/>
      <path id="DejaVuSerif-Italic-67" d="M 3822 3322 
L 3188 72 
Q 3044 -672 2581 -1031 
Q 2078 -1422 1381 -1422 
Q 1053 -1422 765 -1362 
Q 478 -1303 225 -1184 
L 363 -488 
L 663 -488 
Q 653 -813 834 -963 
Q 1016 -1113 1406 -1113 
Q 1913 -1113 2203 -825 
Q 2494 -544 2613 72 
L 2700 519 
Q 2472 206 2181 57 
Q 1891 -91 1525 -91 
Q 975 -91 697 281 
Q 522 516 503 841 
Q 491 1031 534 1256 
Q 750 2359 1516 2928 
Q 2169 3409 2931 3413 
Q 3631 3416 3822 3322 
z
M 3184 2988 
Q 3181 3094 2844 3094 
Q 2234 3094 1775 2625 
Q 1316 2153 1147 1297 
Q 1100 1044 1113 853 
Q 1125 659 1203 528 
Q 1356 269 1756 269 
Q 2194 269 2484 583 
Q 2775 897 2891 1497 
L 2953 1825 
L 3184 2988 
z
" transform="scale(0.015625)"/>
      <path id="DejaVuSerif-Italic-68" d="M 309 0 
L 1191 4531 
L 641 4531 
L 703 4863 
L 1828 4863 
L 1416 2731 
Q 1641 3069 1928 3241 
Q 2216 3413 2553 3413 
Q 3103 3413 3300 3097 
Q 3422 2906 3422 2588 
Q 3422 2378 3369 2113 
L 3022 331 
L 3534 331 
L 3472 0 
L 2381 0 
L 2756 1931 
Q 2819 2253 2819 2469 
Q 2819 2659 2769 2763 
Q 2666 2988 2284 2988 
Q 1884 2988 1617 2697 
Q 1350 2406 1244 1850 
L 884 0 
L 309 0 
z
" transform="scale(0.015625)"/>
      <path id="DejaVuSerif-Italic-74" d="M 856 2988 
L 350 2988 
L 416 3322 
L 922 3322 
L 1122 4353 
L 1700 4353 
L 1500 3322 
L 2581 3322 
L 2516 2988 
L 1434 2988 
L 1025 878 
Q 978 631 978 488 
Q 978 388 1000 338 
Q 1059 219 1278 219 
Q 1503 219 1633 351 
Q 1763 484 1825 781 
L 2259 781 
Q 2147 328 1884 118 
Q 1622 -91 1169 -91 
Q 672 -91 506 131 
Q 406 266 406 516 
Q 406 675 447 878 
L 856 2988 
z
" transform="scale(0.015625)"/>
      <path id="DejaVuSerif-Italic-20" transform="scale(0.015625)"/>
      <path id="Cmmi10-22" d="M 172 666 
Q 172 841 248 1006 
Q 325 1172 448 1303 
Q 572 1434 738 1538 
Q 494 1706 494 1972 
Q 494 2256 731 2470 
Q 969 2684 1312 2792 
Q 1656 2900 1931 2900 
Q 2047 2900 2242 2848 
Q 2438 2797 2584 2712 
Q 2731 2628 2731 2528 
Q 2731 2453 2673 2395 
Q 2616 2338 2547 2338 
Q 2519 2338 2405 2405 
Q 2291 2472 2162 2525 
Q 2034 2578 1881 2578 
Q 1650 2578 1373 2523 
Q 1097 2469 887 2333 
Q 678 2197 678 1978 
Q 678 1769 916 1625 
Q 1184 1747 1466 1747 
Q 1966 1747 1966 1569 
Q 1966 1428 1795 1389 
Q 1625 1350 1403 1350 
Q 1103 1350 909 1441 
Q 697 1328 531 1125 
Q 366 922 366 703 
Q 366 497 505 381 
Q 644 266 847 222 
Q 1050 178 1253 178 
Q 1606 178 1878 254 
Q 2150 331 2272 575 
Q 2291 616 2344 616 
Q 2413 594 2413 531 
Q 2413 525 2394 469 
Q 2291 266 2102 128 
Q 1913 -9 1680 -75 
Q 1447 -141 1203 -141 
Q 806 -141 489 71 
Q 172 284 172 666 
z
M 1159 1538 
Q 1272 1516 1416 1516 
Q 1697 1516 1766 1556 
Q 1678 1581 1459 1581 
Q 1300 1581 1159 1538 
z
" transform="scale(0.015625)"/>
     </defs>
     <use xlink:href="#DejaVuSerif-Italic-77" transform="translate(0 0.015625)"/>
     <use xlink:href="#DejaVuSerif-Italic-65" transform="translate(85.595703 0.015625)"/>
     <use xlink:href="#DejaVuSerif-Italic-69" transform="translate(144.775391 0.015625)"/>
     <use xlink:href="#DejaVuSerif-Italic-67" transform="translate(176.757812 0.015625)"/>
     <use xlink:href="#DejaVuSerif-Italic-68" transform="translate(240.771484 0.015625)"/>
     <use xlink:href="#DejaVuSerif-Italic-74" transform="translate(305.175781 0.015625)"/>
     <use xlink:href="#DejaVuSerif-Italic-20" transform="translate(345.361328 0.015625)"/>
     <use xlink:href="#Cmr10-3d" transform="translate(394.707031 0.015625)"/>
     <use xlink:href="#Cmmi10-22" transform="translate(489.951172 0.015625)"/>
     <use xlink:href="#Cmr10-3d" transform="translate(554.091797 0.015625)"/>
     <use xlink:href="#Cmr10-30" transform="translate(649.335938 0.015625)"/>
     <use xlink:href="#Cmmi10-3a" transform="translate(699.335938 0.015625)"/>
     <use xlink:href="#Cmr10-30" transform="translate(727.021484 0.015625)"/>
     <use xlink:href="#Cmr10-31" transform="translate(777.021484 0.015625)"/>
    </g>
   </g>
   <g id="text_12">
    <!-- Honest -->
    <g transform="translate(46.26 217.885937) scale(0.08 -0.08)">
     <defs>
      <path id="DejaVuSerif-48" d="M 353 0 
L 353 331 
L 947 331 
L 947 4331 
L 353 4331 
L 353 4666 
L 2175 4666 
L 2175 4331 
L 1581 4331 
L 1581 2719 
L 4000 2719 
L 4000 4331 
L 3406 4331 
L 3406 4666 
L 5228 4666 
L 5228 4331 
L 4634 4331 
L 4634 331 
L 5228 331 
L 5228 0 
L 3406 0 
L 3406 331 
L 4000 331 
L 4000 2338 
L 1581 2338 
L 1581 331 
L 2175 331 
L 2175 0 
L 353 0 
z
" transform="scale(0.015625)"/>
      <path id="DejaVuSerif-6f" d="M 1925 219 
Q 2388 219 2623 584 
Q 2859 950 2859 1663 
Q 2859 2375 2623 2739 
Q 2388 3103 1925 3103 
Q 1463 3103 1227 2739 
Q 991 2375 991 1663 
Q 991 950 1228 584 
Q 1466 219 1925 219 
z
M 1925 -91 
Q 1200 -91 759 389 
Q 319 869 319 1663 
Q 319 2456 758 2934 
Q 1197 3413 1925 3413 
Q 2653 3413 3092 2934 
Q 3531 2456 3531 1663 
Q 3531 869 3092 389 
Q 2653 -91 1925 -91 
z
" transform="scale(0.015625)"/>
      <path id="DejaVuSerif-6e" d="M 263 0 
L 263 331 
L 781 331 
L 781 2988 
L 231 2988 
L 231 3322 
L 1356 3322 
L 1356 2731 
Q 1516 3069 1770 3241 
Q 2025 3413 2363 3413 
Q 2913 3413 3172 3097 
Q 3431 2781 3431 2113 
L 3431 331 
L 3944 331 
L 3944 0 
L 2356 0 
L 2356 331 
L 2853 331 
L 2853 1931 
Q 2853 2541 2703 2767 
Q 2553 2994 2175 2994 
Q 1775 2994 1565 2701 
Q 1356 2409 1356 1850 
L 1356 331 
L 1856 331 
L 1856 0 
L 263 0 
z
" transform="scale(0.015625)"/>
      <path id="DejaVuSerif-65" d="M 3469 1600 
L 991 1600 
L 991 1575 
Q 991 903 1244 561 
Q 1497 219 1991 219 
Q 2369 219 2611 417 
Q 2853 616 2950 1006 
L 3413 1006 
Q 3275 459 2904 184 
Q 2534 -91 1931 -91 
Q 1203 -91 761 389 
Q 319 869 319 1663 
Q 319 2450 753 2931 
Q 1188 3413 1894 3413 
Q 2647 3413 3050 2948 
Q 3453 2484 3469 1600 
z
M 2791 1931 
Q 2772 2513 2545 2808 
Q 2319 3103 1894 3103 
Q 1497 3103 1269 2806 
Q 1041 2509 991 1931 
L 2791 1931 
z
" transform="scale(0.015625)"/>
      <path id="DejaVuSerif-73" d="M 359 184 
L 359 959 
L 691 959 
Q 703 588 923 403 
Q 1144 219 1575 219 
Q 1963 219 2166 364 
Q 2369 509 2369 788 
Q 2369 1006 2220 1140 
Q 2072 1275 1594 1428 
L 1178 1569 
Q 750 1706 558 1912 
Q 366 2119 366 2438 
Q 366 2894 700 3153 
Q 1034 3413 1625 3413 
Q 1888 3413 2178 3344 
Q 2469 3275 2778 3144 
L 2778 2419 
L 2447 2419 
Q 2434 2741 2221 2922 
Q 2009 3103 1644 3103 
Q 1281 3103 1095 2975 
Q 909 2847 909 2591 
Q 909 2381 1050 2254 
Q 1191 2128 1613 1997 
L 2069 1856 
Q 2541 1709 2748 1489 
Q 2956 1269 2956 922 
Q 2956 450 2595 179 
Q 2234 -91 1600 -91 
Q 1278 -91 972 -22 
Q 666 47 359 184 
z
" transform="scale(0.015625)"/>
      <path id="DejaVuSerif-74" d="M 691 2988 
L 184 2988 
L 184 3322 
L 691 3322 
L 691 4353 
L 1269 4353 
L 1269 3322 
L 2350 3322 
L 2350 2988 
L 1269 2988 
L 1269 878 
Q 1269 456 1350 337 
Q 1431 219 1650 219 
Q 1875 219 1978 351 
Q 2081 484 2088 781 
L 2522 781 
Q 2497 328 2275 118 
Q 2053 -91 1600 -91 
Q 1103 -91 897 129 
Q 691 350 691 878 
L 691 2988 
z
" transform="scale(0.015625)"/>
     </defs>
     <use xlink:href="#DejaVuSerif-48"/>
     <use xlink:href="#DejaVuSerif-6f" transform="translate(87.207031 0)"/>
     <use xlink:href="#DejaVuSerif-6e" transform="translate(147.412109 0)"/>
     <use xlink:href="#DejaVuSerif-65" transform="translate(211.816406 0)"/>
     <use xlink:href="#DejaVuSerif-73" transform="translate(270.996094 0)"/>
     <use xlink:href="#DejaVuSerif-74" transform="translate(322.314453 0)"/>
    </g>
   </g>
   <g id="text_13">
    <!-- Sybil -->
    <g transform="translate(120.66 217.829062) scale(0.08 -0.08)">
     <defs>
      <path id="DejaVuSerif-53" d="M 594 225 
L 594 1288 
L 953 1284 
Q 969 753 1261 498 
Q 1553 244 2150 244 
Q 2706 244 2998 464 
Q 3291 684 3291 1106 
Q 3291 1444 3114 1625 
Q 2938 1806 2369 1978 
L 1753 2163 
Q 1084 2366 811 2669 
Q 538 2972 538 3500 
Q 538 4094 959 4422 
Q 1381 4750 2144 4750 
Q 2469 4750 2856 4679 
Q 3244 4609 3681 4475 
L 3681 3481 
L 3328 3481 
Q 3275 3975 2998 4195 
Q 2722 4416 2156 4416 
Q 1663 4416 1405 4214 
Q 1147 4013 1147 3628 
Q 1147 3294 1340 3103 
Q 1534 2913 2163 2725 
L 2741 2553 
Q 3375 2363 3645 2067 
Q 3916 1772 3916 1275 
Q 3916 597 3481 253 
Q 3047 -91 2188 -91 
Q 1803 -91 1404 -12 
Q 1006 66 594 225 
z
" transform="scale(0.015625)"/>
      <path id="DejaVuSerif-79" d="M 1381 -609 
L 1600 -56 
L 359 2988 
L -19 2988 
L -19 3322 
L 1509 3322 
L 1509 2988 
L 978 2988 
L 1913 703 
L 2847 2988 
L 2350 2988 
L 2350 3322 
L 3597 3322 
L 3597 2988 
L 3225 2988 
L 1703 -750 
Q 1547 -1138 1356 -1280 
Q 1166 -1422 819 -1422 
Q 672 -1422 517 -1397 
Q 363 -1372 206 -1325 
L 206 -691 
L 500 -691 
Q 519 -903 608 -995 
Q 697 -1088 884 -1088 
Q 1056 -1088 1161 -992 
Q 1266 -897 1381 -609 
z
" transform="scale(0.015625)"/>
      <path id="DejaVuSerif-62" d="M 738 331 
L 738 4531 
L 184 4531 
L 184 4863 
L 1313 4863 
L 1313 2803 
Q 1481 3116 1742 3264 
Q 2003 3413 2388 3413 
Q 3000 3413 3387 2928 
Q 3775 2444 3775 1663 
Q 3775 881 3387 395 
Q 3000 -91 2388 -91 
Q 2003 -91 1742 57 
Q 1481 206 1313 519 
L 1313 0 
L 184 0 
L 184 331 
L 738 331 
z
M 1313 1497 
Q 1313 897 1542 583 
Q 1772 269 2209 269 
Q 2650 269 2876 622 
Q 3103 975 3103 1663 
Q 3103 2353 2876 2703 
Q 2650 3053 2209 3053 
Q 1772 3053 1542 2737 
Q 1313 2422 1313 1825 
L 1313 1497 
z
" transform="scale(0.015625)"/>
      <path id="DejaVuSerif-69" d="M 622 4353 
Q 622 4497 726 4603 
Q 831 4709 978 4709 
Q 1122 4709 1226 4603 
Q 1331 4497 1331 4353 
Q 1331 4206 1228 4103 
Q 1125 4000 978 4000 
Q 831 4000 726 4103 
Q 622 4206 622 4353 
z
M 1356 331 
L 1900 331 
L 1900 0 
L 231 0 
L 231 331 
L 781 331 
L 781 2988 
L 231 2988 
L 231 3322 
L 1356 3322 
L 1356 331 
z
" transform="scale(0.015625)"/>
      <path id="DejaVuSerif-6c" d="M 1313 331 
L 1856 331 
L 1856 0 
L 184 0 
L 184 331 
L 738 331 
L 738 4531 
L 184 4531 
L 184 4863 
L 1313 4863 
L 1313 331 
z
" transform="scale(0.015625)"/>
     </defs>
     <use xlink:href="#DejaVuSerif-53"/>
     <use xlink:href="#DejaVuSerif-79" transform="translate(68.505859 0)"/>
     <use xlink:href="#DejaVuSerif-62" transform="translate(125 0)"/>
     <use xlink:href="#DejaVuSerif-69" transform="translate(189.013672 0)"/>
     <use xlink:href="#DejaVuSerif-6c" transform="translate(220.996094 0)"/>
    </g>
   </g>
   <g id="text_14">
    <!-- Throttled bridge -->
    <g transform="translate(208.08 217.829062) scale(0.08 -0.08)">
     <defs>
      <path id="DejaVuSerif-54" d="M 1222 0 
L 1222 331 
L 1819 331 
L 1819 4294 
L 447 4294 
L 447 3566 
L 63 3566 
L 63 4666 
L 4206 4666 
L 4206 3566 
L 3822 3566 
L 3822 4294 
L 2450 4294 
L 2450 331 
L 3047 331 
L 3047 0 
L 1222 0 
z
" transform="scale(0.015625)"/>
      <path id="DejaVuSerif-68" d="M 263 0 
L 263 331 
L 781 331 
L 781 4531 
L 231 4531 
L 231 4863 
L 1356 4863 
L 1356 2731 
Q 1516 3069 1770 3241 
Q 2025 3413 2363 3413 
Q 2913 3413 3172 3097 
Q 3431 2781 3431 2113 
L 3431 331 
L 3944 331 
L 3944 0 
L 2356 0 
L 2356 331 
L 2853 331 
L 2853 1931 
Q 2853 2541 2704 2764 
Q 2556 2988 2175 2988 
Q 1775 2988 1565 2697 
Q 1356 2406 1356 1850 
L 1356 331 
L 1856 331 
L 1856 0 
L 263 0 
z
" transform="scale(0.015625)"/>
      <path id="DejaVuSerif-72" d="M 3059 3328 
L 3059 2497 
L 2728 2497 
Q 2713 2744 2591 2866 
Q 2469 2988 2234 2988 
Q 1809 2988 1582 2694 
Q 1356 2400 1356 1850 
L 1356 331 
L 2022 331 
L 2022 0 
L 263 0 
L 263 331 
L 781 331 
L 781 2994 
L 231 2994 
L 231 3322 
L 1356 3322 
L 1356 2731 
Q 1525 3078 1790 3245 
Q 2056 3413 2438 3413 
Q 2578 3413 2733 3391 
Q 2888 3369 3059 3328 
z
" transform="scale(0.015625)"/>
      <path id="DejaVuSerif-64" d="M 3359 331 
L 3909 331 
L 3909 0 
L 2784 0 
L 2784 519 
Q 2616 206 2355 57 
Q 2094 -91 1709 -91 
Q 1097 -91 708 395 
Q 319 881 319 1663 
Q 319 2444 706 2928 
Q 1094 3413 1709 3413 
Q 2094 3413 2355 3264 
Q 2616 3116 2784 2803 
L 2784 4531 
L 2241 4531 
L 2241 4863 
L 3359 4863 
L 3359 331 
z
M 2784 1497 
L 2784 1825 
Q 2784 2422 2554 2737 
Q 2325 3053 1888 3053 
Q 1444 3053 1217 2703 
Q 991 2353 991 1663 
Q 991 975 1217 622 
Q 1444 269 1888 269 
Q 2325 269 2554 583 
Q 2784 897 2784 1497 
z
" transform="scale(0.015625)"/>
      <path id="DejaVuSerif-20" transform="scale(0.015625)"/>
      <path id="DejaVuSerif-67" d="M 3359 2988 
L 3359 72 
Q 3359 -644 2965 -1033 
Q 2572 -1422 1844 -1422 
Q 1516 -1422 1216 -1362 
Q 916 -1303 641 -1184 
L 641 -488 
L 941 -488 
Q 997 -813 1206 -963 
Q 1416 -1113 1806 -1113 
Q 2313 -1113 2548 -827 
Q 2784 -541 2784 72 
L 2784 519 
Q 2616 206 2355 57 
Q 2094 -91 1709 -91 
Q 1097 -91 708 395 
Q 319 881 319 1663 
Q 319 2444 706 2928 
Q 1094 3413 1709 3413 
Q 2094 3413 2355 3264 
Q 2616 3116 2784 2803 
L 2784 3322 
L 3909 3322 
L 3909 2988 
L 3359 2988 
z
M 2784 1825 
Q 2784 2422 2554 2737 
Q 2325 3053 1888 3053 
Q 1444 3053 1217 2703 
Q 991 2353 991 1663 
Q 991 975 1217 622 
Q 1444 269 1888 269 
Q 2325 269 2554 583 
Q 2784 897 2784 1497 
L 2784 1825 
z
" transform="scale(0.015625)"/>
     </defs>
     <use xlink:href="#DejaVuSerif-54"/>
     <use xlink:href="#DejaVuSerif-68" transform="translate(66.699219 0)"/>
     <use xlink:href="#DejaVuSerif-72" transform="translate(131.103516 0)"/>
     <use xlink:href="#DejaVuSerif-6f" transform="translate(178.90625 0)"/>
     <use xlink:href="#DejaVuSerif-74" transform="translate(239.111328 0)"/>
     <use xlink:href="#DejaVuSerif-74" transform="translate(279.296875 0)"/>
     <use xlink:href="#DejaVuSerif-6c" transform="translate(319.482422 0)"/>
     <use xlink:href="#DejaVuSerif-65" transform="translate(351.464844 0)"/>
     <use xlink:href="#DejaVuSerif-64" transform="translate(410.644531 0)"/>
     <use xlink:href="#DejaVuSerif-20" transform="translate(474.658203 0)"/>
     <use xlink:href="#DejaVuSerif-62" transform="translate(506.445312 0)"/>
     <use xlink:href="#DejaVuSerif-72" transform="translate(570.458984 0)"/>
     <use xlink:href="#DejaVuSerif-69" transform="translate(618.261719 0)"/>
     <use xlink:href="#DejaVuSerif-64" transform="translate(650.244141 0)"/>
     <use xlink:href="#DejaVuSerif-67" transform="translate(714.257812 0)"/>
     <use xlink:href="#DejaVuSerif-65" transform="translate(778.271484 0)"/>
    </g>
   </g>
  </g>
 </g>
 <defs>
  <clipPath id="pf093f2b6a1">
   <rect x="7.2" y="7.358437" width="446.4" height="223.2"/>
  </clipPath>
 </defs>
</svg>
